<svg width="20" height="21" viewBox="0 0 20 21" fill="none" xmlns="http://www.w3.org/2000/svg">
<path d="M13.3334 7.99999C13.3334 8.221 13.2456 8.43296 13.0893 8.58925C12.933 8.74553 12.721 8.83332 12.5 8.83332C12.279 8.83332 12.067 8.74553 11.9108 8.58925C11.7545 8.43296 11.6667 8.221 11.6667 7.99999C11.6667 7.77898 11.7545 7.56701 11.9108 7.41073C12.067 7.25445 12.279 7.16666 12.5 7.16666C12.721 7.16666 12.933 7.25445 13.0893 7.41073C13.2456 7.56701 13.3334 7.77898 13.3334 7.99999ZM8.33335 7.99999C8.33335 8.221 8.24556 8.43296 8.08928 8.58925C7.933 8.74553 7.72103 8.83332 7.50002 8.83332C7.27901 8.83332 7.06705 8.74553 6.91076 8.58925C6.75448 8.43296 6.66669 8.221 6.66669 7.99999C6.66669 7.77898 6.75448 7.56701 6.91076 7.41073C7.06705 7.25445 7.27901 7.16666 7.50002 7.16666C7.72103 7.16666 7.933 7.25445 8.08928 7.41073C8.24556 7.56701 8.33335 7.77898 8.33335 7.99999Z" fill="#303030"/>
<path fill-rule="evenodd" clip-rule="evenodd" d="M9.99998 2.79166C9.5027 2.79166 9.02579 2.9892 8.67416 3.34083C8.32253 3.69246 8.12498 4.16938 8.12498 4.66666V4.87832C8.47276 4.87555 8.84915 4.87443 9.25415 4.87499H10.7458C11.1514 4.87443 11.5278 4.87555 11.875 4.87832V4.66666C11.875 4.16938 11.6774 3.69246 11.3258 3.34083C10.9742 2.9892 10.4973 2.79166 9.99998 2.79166ZM13.125 4.92249V4.66666C13.125 3.83786 12.7957 3.043 12.2097 2.45695C11.6236 1.8709 10.8288 1.54166 9.99998 1.54166C9.17118 1.54166 8.37633 1.8709 7.79028 2.45695C7.20422 3.043 6.87498 3.83786 6.87498 4.66666V4.92249C6.76276 4.93027 6.65415 4.93999 6.54915 4.95166C5.81748 5.03082 5.20498 5.19582 4.66165 5.56832C4.47525 5.69714 4.29967 5.84095 4.13665 5.99832C3.66498 6.45832 3.38248 7.02666 3.16165 7.72832C2.94748 8.41082 2.77415 9.27749 2.55582 10.3667L2.53998 10.4458C2.22665 12.015 1.97915 13.2517 1.90832 14.2367C1.83498 15.2433 1.93665 16.0892 2.41332 16.8233C2.57332 17.0689 2.75776 17.2939 2.96665 17.4983C3.59332 18.11 4.40332 18.375 5.40415 18.5017C6.38415 18.625 7.64582 18.625 9.24582 18.625H10.7542C12.355 18.625 13.6158 18.625 14.5958 18.5017C15.5967 18.375 16.4075 18.11 17.0333 17.4983C17.2418 17.2942 17.4274 17.0678 17.5867 16.8233C18.0633 16.09 18.165 15.2433 18.0925 14.2367C18.0208 13.2517 17.7742 12.015 17.4592 10.4458L17.4442 10.3667C17.2267 9.27749 17.0525 8.41082 16.8383 7.72832C16.6175 7.02666 16.335 6.45832 15.8633 5.99832C15.7003 5.84095 15.5247 5.69714 15.3383 5.56832C14.795 5.19582 14.1825 5.03082 13.4508 4.95166C13.3427 4.94001 13.2343 4.93028 13.1258 4.92249M6.68332 6.19416C6.06082 6.26082 5.67665 6.38832 5.36832 6.59916C5.24048 6.68718 5.12033 6.78586 5.00915 6.89416C4.74165 7.15499 4.54248 7.50666 4.35415 8.10332C4.16248 8.71416 4.00082 9.51416 3.77498 10.6467C3.44998 12.27 3.21915 13.43 3.15498 14.3267C3.09082 15.2117 3.19832 15.7375 3.46165 16.1425C3.57054 16.3103 3.69665 16.4642 3.83998 16.6042C4.18582 16.9417 4.67998 17.15 5.56082 17.2617C6.45248 17.3742 7.63582 17.375 9.29082 17.375H10.71C12.365 17.375 13.5467 17.3742 14.4392 17.2617C15.32 17.15 15.8142 16.9417 16.16 16.6042C16.3025 16.4645 16.4293 16.3097 16.5383 16.1425C16.8017 15.7375 16.9092 15.2117 16.8458 14.3258C16.7808 13.4292 16.55 12.27 16.2258 10.6467C15.9992 9.51416 15.8383 8.71332 15.6458 8.10332C15.4583 7.50666 15.2583 7.15499 14.9908 6.89416C14.8808 6.78492 14.7608 6.68617 14.6325 6.59916C14.3242 6.38832 13.9391 6.26166 13.3167 6.19416C12.6808 6.12582 11.8642 6.12499 10.7092 6.12499H9.29165C8.13665 6.12499 7.31998 6.12582 6.68332 6.19416Z" fill="#303030"/>
</svg>
