<svg width="22" height="22" viewBox="0 0 22 22" fill="none" xmlns="http://www.w3.org/2000/svg">
<path d="M11.0026 17.4173C14.5464 17.4173 17.4193 14.5445 17.4193 11.0007C17.4193 7.45682 14.5464 4.58398 11.0026 4.58398C7.45878 4.58398 4.58594 7.45682 4.58594 11.0007C4.58594 14.5445 7.45878 17.4173 11.0026 17.4173Z" stroke="#919191" stroke-width="1.2"/>
<path d="M5.46825 2.875C4.84639 3.04155 4.27934 3.36889 3.82411 3.82411C3.36889 4.27934 3.04155 4.84639 2.875 5.46825M16.5324 2.875C17.1543 3.04155 17.7213 3.36889 18.1766 3.82411C18.6318 4.27934 18.9591 4.84639 19.1257 5.46825M11.0003 7.33367V10.7712C11.0003 10.8977 11.103 11.0003 11.2295 11.0003H13.7503" stroke="#919191" stroke-width="1.2" stroke-linecap="round"/>
</svg>
