<svg width="27" height="20" viewBox="0 0 27 20" fill="none" xmlns="http://www.w3.org/2000/svg">
<path d="M22.6613 1.65789C20.9889 0.890525 19.1956 0.325164 17.3204 0.00135832C17.2863 -0.00489103 17.2522 0.0107264 17.2346 0.0419621C17.004 0.452184 16.7485 0.987351 16.5696 1.40799C14.5528 1.10606 12.5463 1.10606 10.5709 1.40799C10.3919 0.978001 10.1272 0.452184 9.89551 0.0419621C9.87792 0.0117686 9.84381 -0.00384885 9.80966 0.00135832C7.93559 0.324129 6.14221 0.88949 4.46878 1.65789C4.45429 1.66414 4.44187 1.67456 4.43363 1.68808C1.03195 6.77013 0.100084 11.7273 0.557225 16.6229C0.559293 16.6469 0.572739 16.6698 0.591355 16.6843C2.83569 18.3325 5.00971 19.3331 7.14336 19.9964C7.17751 20.0068 7.21369 19.9943 7.23542 19.9662C7.74013 19.2769 8.19004 18.5502 8.57579 17.7859C8.59856 17.7412 8.57683 17.688 8.5303 17.6703C7.81667 17.3996 7.13715 17.0696 6.4835 16.6948C6.4318 16.6646 6.42766 16.5906 6.47522 16.5552C6.61277 16.4521 6.75036 16.3449 6.88171 16.2366C6.90547 16.2168 6.93858 16.2127 6.96652 16.2252C11.2607 18.1857 15.9097 18.1857 20.1532 16.2252C20.1812 16.2116 20.2143 16.2158 20.2391 16.2356C20.3705 16.3439 20.508 16.4521 20.6466 16.5552C20.6942 16.5906 20.6911 16.6646 20.6394 16.6948C19.9857 17.0769 19.3062 17.3996 18.5915 17.6693C18.545 17.687 18.5243 17.7412 18.5471 17.7859C18.9411 18.5491 19.391 19.2759 19.8864 19.9651C19.9071 19.9943 19.9443 20.0068 19.9785 19.9964C22.1225 19.3331 24.2965 18.3325 26.5408 16.6843C26.5605 16.6698 26.5729 16.6479 26.575 16.624C27.1221 10.964 25.6586 6.04755 22.6954 1.68912C22.6882 1.67456 22.6758 1.66414 22.6613 1.65789ZM9.21706 13.642C7.92421 13.642 6.85894 12.455 6.85894 10.9974C6.85894 9.53969 7.90355 8.35275 9.21706 8.35275C10.5409 8.35275 11.5958 9.55011 11.5751 10.9974C11.5751 12.455 10.5305 13.642 9.21706 13.642ZM17.9358 13.642C16.643 13.642 15.5777 12.455 15.5777 10.9974C15.5777 9.53969 16.6223 8.35275 17.9358 8.35275C19.2597 8.35275 20.3146 9.55011 20.2939 10.9974C20.2939 12.455 19.2597 13.642 17.9358 13.642Z" fill="#C0BFBF"/>
</svg>
