<svg width="21" height="20" viewBox="0 0 21 20" fill="none" xmlns="http://www.w3.org/2000/svg">
<path d="M19.3 10.207C19.3 9.55703 19.2417 8.93203 19.1333 8.33203H10.5V11.8779H15.4333C15.2208 13.0237 14.575 13.9945 13.6042 14.6445V16.9445H16.5667C18.3 15.3487 19.3 12.9987 19.3 10.207Z" fill="#4285F4"/>
<path d="M10.5 19.1672C12.975 19.1672 15.05 18.3464 16.5667 16.9464L13.6042 14.6464C12.7833 15.1964 11.7333 15.5214 10.5 15.5214C8.11248 15.5214 6.09165 13.9089 5.37082 11.7422H2.30832V14.1172C3.81665 17.113 6.91665 19.1672 10.5 19.1672Z" fill="#34A853"/>
<path d="M5.37084 11.7411C5.18751 11.1911 5.08334 10.6036 5.08334 9.99948C5.08334 9.39531 5.18751 8.80781 5.37084 8.25781V5.88281H2.30834C1.66668 7.16019 1.33278 8.56999 1.33334 9.99948C1.33334 11.4786 1.68751 12.8786 2.30834 14.1161L5.37084 11.7411Z" fill="#FBBC05"/>
<path d="M10.5 4.47786C11.8458 4.47786 13.0542 4.94036 14.0042 5.8487L16.6333 3.21953C15.0458 1.74036 12.9708 0.832031 10.5 0.832031C6.91665 0.832031 3.81665 2.8862 2.30832 5.88203L5.37082 8.25703C6.09165 6.09036 8.11249 4.47786 10.5 4.47786Z" fill="#EA4335"/>
</svg>
