<svg width="24" height="24" viewBox="0 0 24 24" fill="none" xmlns="http://www.w3.org/2000/svg">
<path d="M18.6667 20H4.00002V5.33333H12.8134L14.1467 4H4.00002C3.6464 4 3.30726 4.14048 3.05721 4.39052C2.80716 4.64057 2.66669 4.97971 2.66669 5.33333V20C2.66669 20.3536 2.80716 20.6928 3.05721 20.9428C3.30726 21.1929 3.6464 21.3333 4.00002 21.3333H18.6667C19.0203 21.3333 19.3594 21.1929 19.6095 20.9428C19.8595 20.6928 20 20.3536 20 20V10L18.6667 11.3333V20Z" fill="#303030"/>
<path d="M22.3533 3.8902L20.1067 1.64354C20.007 1.54356 19.8885 1.46423 19.7581 1.41011C19.6277 1.35599 19.4879 1.32812 19.3467 1.32812C19.2055 1.32813 19.0656 1.35599 18.9352 1.41011C18.8048 1.46423 18.6864 1.54356 18.5867 1.64354L9.44666 10.8369L8.70666 14.0435C8.67513 14.199 8.67845 14.3595 8.71636 14.5135C8.75428 14.6675 8.82586 14.8112 8.92594 14.9342C9.02603 15.0572 9.15214 15.1566 9.2952 15.225C9.43826 15.2935 9.59472 15.3294 9.75333 15.3302C9.8353 15.3392 9.91801 15.3392 9.99999 15.3302L13.2333 14.6169L22.3533 5.4102C22.4533 5.3105 22.5326 5.19204 22.5868 5.06163C22.6409 4.93122 22.6687 4.7914 22.6687 4.6502C22.6687 4.509 22.6409 4.36919 22.5868 4.23878C22.5326 4.10836 22.4533 3.98991 22.3533 3.8902ZM12.54 13.3835L10.1 13.9235L10.6667 11.5035L17.5467 4.57687L19.4267 6.45687L12.54 13.3835ZM20.18 5.70354L18.3 3.82354L19.3333 2.7702L21.2267 4.66354L20.18 5.70354Z" fill="#303030"/>
</svg>
