<svg width="21" height="20" viewBox="0 0 21 20" fill="none" xmlns="http://www.w3.org/2000/svg">
<path d="M17.9754 17.0413H14.9824V12.4004C14.9824 11.2937 14.9625 9.86912 13.4258 9.86912C11.867 9.86912 11.6284 11.0749 11.6284 12.3199V17.041H8.63548V7.49741H11.5087V8.80165H11.5489C11.8365 8.31485 12.252 7.91439 12.7512 7.64291C13.2504 7.37143 13.8147 7.23911 14.3838 7.26003C17.4173 7.26003 17.9766 9.23567 17.9766 11.8059L17.9754 17.0413ZM5.25844 6.19287C4.91493 6.19293 4.5791 6.09213 4.29344 5.90321C4.00778 5.71429 3.78514 5.44574 3.65362 5.13153C3.52211 4.81731 3.48764 4.47153 3.5546 4.13792C3.62155 3.80431 3.78692 3.49785 4.02978 3.2573C4.27264 3.01675 4.58209 2.8529 4.91899 2.78649C5.25589 2.72007 5.60512 2.75406 5.92251 2.88417C6.2399 3.01428 6.51119 3.23465 6.70209 3.51743C6.89299 3.8002 6.99492 4.13268 6.99498 4.47282C6.99502 4.69866 6.95013 4.92229 6.86288 5.13095C6.77564 5.33962 6.64775 5.52922 6.4865 5.68895C6.32525 5.84867 6.13379 5.97538 5.92308 6.06184C5.71237 6.1483 5.48653 6.19282 5.25844 6.19287ZM6.75492 17.0413H3.75885V7.49741H6.75492V17.0413ZM19.4675 0.00136263H2.2549C1.86422 -0.00300274 1.48776 0.146386 1.20826 0.416702C0.92877 0.687018 0.769111 1.05614 0.764343 1.44297V18.5567C0.768948 18.9438 0.928513 19.3131 1.208 19.5837C1.48748 19.8543 1.86403 20.004 2.2549 19.9999H19.4675C19.8591 20.0047 20.2367 19.8555 20.5173 19.5849C20.7979 19.3143 20.9585 18.9445 20.964 18.5567V1.44174C20.9584 1.05414 20.7976 0.684596 20.517 0.414287C20.2364 0.143978 19.8589 -0.00498453 19.4675 0.000127351" fill="#C0BFBF"/>
</svg>
