<svg width="28" height="28" viewBox="0 0 28 28" fill="none" xmlns="http://www.w3.org/2000/svg">
<path d="M8.16602 21.0026C6.03218 21.4833 4.66602 22.2206 4.66602 23.0489C4.66602 24.4956 8.84501 25.6693 13.9993 25.6693C19.1537 25.6693 23.3327 24.4956 23.3327 23.0489C23.3327 22.2206 21.9665 21.4833 19.8327 21.0026M16.916 10.5026C16.916 11.2762 16.6087 12.018 16.0617 12.565C15.5148 13.112 14.7729 13.4193 13.9993 13.4193C13.2258 13.4193 12.4839 13.112 11.937 12.565C11.39 12.018 11.0827 11.2762 11.0827 10.5026C11.0827 9.72906 11.39 8.98719 11.937 8.44021C12.4839 7.89323 13.2258 7.58594 13.9993 7.58594C14.7729 7.58594 15.5148 7.89323 16.0617 8.44021C16.6087 8.98719 16.916 9.72906 16.916 10.5026Z" stroke="#161616" stroke-width="1.2" stroke-linecap="round" stroke-linejoin="round"/>
<path d="M15.4658 20.4123C15.0717 20.7914 14.5461 21.0032 13.9993 21.0032C13.4524 21.0032 12.9268 20.7914 12.5328 20.4123C8.92893 16.9204 4.10009 13.0203 6.45442 7.35727C7.72959 4.29477 10.7863 2.33594 13.9993 2.33594C17.2123 2.33594 20.2701 4.29594 21.5441 7.35727C23.8961 13.0121 19.0789 16.9321 15.4658 20.4123Z" stroke="#161616" stroke-width="1.2" stroke-linecap="round" stroke-linejoin="round"/>
</svg>
