<svg width="28" height="28" viewBox="0 0 28 28" fill="none" xmlns="http://www.w3.org/2000/svg">
<path d="M24.15 9.38615L14.5945 4.6699C14.4096 4.57869 14.2062 4.53125 14 4.53125C13.7938 4.53125 13.5904 4.57869 13.4055 4.6699L3.85 9.38615C3.48367 9.56564 3.17483 9.84399 2.95836 10.1898C2.7419 10.5355 2.62643 10.9349 2.625 11.3429V21.4387C2.625 22.6468 3.61703 23.6262 4.84094 23.6262H23.1612C24.3852 23.6262 25.3772 22.6468 25.3772 21.4387V11.3429C25.3756 10.9347 25.2598 10.5351 25.0429 10.1893C24.826 9.84355 24.5167 9.56533 24.15 9.38615Z" stroke="#161616" stroke-width="1.2" stroke-linecap="round" stroke-linejoin="round"/>
<path d="M21.7285 20.125L14.6596 14.6267C14.4292 14.4475 14.1457 14.3502 13.8538 14.3502C13.5619 14.3502 13.2784 14.4475 13.048 14.6267L5.97852 20.125M16.916 16.1328L24.3535 10.5M3.35352 10.5L10.9551 16.2422" stroke="#161616" stroke-width="1.2" stroke-linecap="round" stroke-linejoin="round"/>
</svg>
