<svg width="147" height="50" viewBox="0 0 147 50" fill="none" xmlns="http://www.w3.org/2000/svg">
<path d="M84.417 28.0788L84.0216 27.1603L84.417 28.0788ZM67.6216 40.0855L68.3051 39.3555L67.6216 40.0855ZM146.903 40.5151C147.14 40.0164 146.928 39.4198 146.43 39.1825L138.303 35.3153C137.804 35.078 137.208 35.2899 136.97 35.7886C136.733 36.2873 136.945 36.884 137.443 37.1213L144.667 40.5588L141.23 47.7826C140.993 48.2813 141.204 48.878 141.703 49.1153C142.202 49.3526 142.799 49.1407 143.036 48.642L146.903 40.5151ZM0.234858 1.64386C6.7983 9.44362 18.8653 20.1459 33.804 26.9765C48.7562 33.8133 66.6733 36.8058 84.8124 28.9973L84.0216 27.1603C66.5545 34.6795 49.2479 31.839 34.6357 25.1576C20.0099 18.4701 8.17145 7.96916 1.76514 0.356138L0.234858 1.64386ZM84.8124 28.9973C90.393 26.595 94.0513 24.6353 96.1814 23.0723C97.2331 22.3007 98.0046 21.5605 98.4163 20.8377C98.6281 20.466 98.7753 20.0455 98.7673 19.5957C98.759 19.1252 98.5818 18.7102 98.2933 18.3781C97.7685 17.7741 96.9153 17.4832 96.0888 17.3264C95.2134 17.1602 94.1418 17.1047 92.9514 17.1372C90.5645 17.2023 87.5614 17.626 84.4021 18.3549C78.1196 19.8044 70.9786 22.5175 66.7498 26.2515C64.6274 28.1255 63.1176 30.3657 62.9818 32.9367C62.8448 35.5306 64.1193 38.1761 66.9381 40.8154L68.3051 39.3555C65.7355 36.9495 64.8842 34.837 64.979 33.0422C65.0751 31.2244 66.1546 29.4451 68.0736 27.7507C71.9275 24.3477 78.6777 21.7282 84.8517 20.3037C87.9208 19.5956 90.7873 19.197 93.006 19.1364C94.1184 19.1061 95.0336 19.1618 95.7158 19.2913C96.4469 19.43 96.7222 19.6192 96.7835 19.6898C96.7879 19.6949 96.7682 19.6658 96.7676 19.6312C96.7674 19.6173 96.7726 19.6826 96.6785 19.8478C96.4784 20.199 95.9826 20.7376 94.9983 21.4598C93.0564 22.8846 89.568 24.7727 84.0216 27.1603L84.8124 28.9973ZM66.9381 40.8154C71.4326 45.0236 77.5017 47.5208 84.2905 48.8247C91.083 50.1294 98.6613 50.2524 106.252 49.6595C121.43 48.4739 136.802 44.4134 146.335 41.0278L145.665 39.1431C136.257 42.4846 121.061 46.4967 106.096 47.6656C98.6152 48.2499 91.2281 48.1207 84.6677 46.8606C78.1036 45.5998 72.4323 43.2198 68.3051 39.3555L66.9381 40.8154Z" fill="#D9D9D9"/>
</svg>
