<svg width="20" height="20" viewBox="0 0 20 20" fill="none" xmlns="http://www.w3.org/2000/svg">
<path d="M10.8334 10.0034H18.3334M18.3334 10.0034L15.5559 6.67002M18.3334 10.0034L15.5559 13.3367M11.6667 5.83669V4.31502C11.6667 4.0845 11.6188 3.85649 11.5262 3.64539C11.4336 3.4343 11.2982 3.24472 11.1285 3.08863C10.9589 2.93254 10.7587 2.81334 10.5407 2.73856C10.3226 2.66379 10.0914 2.63506 9.86169 2.65419L3.19502 3.20919C2.7784 3.24389 2.39003 3.4339 2.10694 3.74153C1.82385 4.04916 1.66671 4.45196 1.66669 4.87002V15.1367C1.66671 15.5548 1.82385 15.9575 2.10694 16.2652C2.39003 16.5728 2.7784 16.7628 3.19502 16.7975L9.86169 17.3534C10.0915 17.3725 10.3228 17.3437 10.5409 17.2689C10.759 17.1941 10.9592 17.0748 11.1288 16.9186C11.2985 16.7625 11.4339 16.5728 11.5265 16.3616C11.619 16.1504 11.6668 15.9223 11.6667 15.6917V14.17" stroke="#B60000" stroke-width="1.5" stroke-linecap="round" stroke-linejoin="round"/>
</svg>
