<svg width="28" height="28" viewBox="0 0 28 28" fill="none" xmlns="http://www.w3.org/2000/svg">
<path d="M20.416 5.6464C18.638 5.05723 16.503 4.66406 13.9993 4.66406C11.4957 4.66406 9.36068 5.05723 7.58268 5.6464M20.416 5.6464C23.9405 6.81306 26.0568 8.74973 26.8327 9.91406L23.916 12.8307L20.416 10.4974V5.6464ZM7.58268 5.6464C4.05818 6.81306 1.94185 8.74973 1.16602 9.91406L4.08268 12.8307L7.58268 10.4974V5.6464ZM11.666 8.16406V11.6641M11.666 11.6641L5.34968 17.9804C4.91207 18.4179 4.66615 19.0113 4.66602 19.6301V20.9974C4.66602 21.6162 4.91185 22.2097 5.34943 22.6473C5.78702 23.0849 6.38051 23.3307 6.99935 23.3307H20.9993C21.6182 23.3307 22.2117 23.0849 22.6493 22.6473C23.0868 22.2097 23.3327 21.6162 23.3327 20.9974V19.6301C23.3325 19.0113 23.0866 18.4179 22.649 17.9804L16.3327 11.6641M11.666 11.6641H16.3327M16.3327 11.6641V8.16406" stroke="#161616" stroke-width="1.2" stroke-linecap="round" stroke-linejoin="round"/>
<path d="M13.9993 19.8307C15.288 19.8307 16.3327 18.7861 16.3327 17.4974C16.3327 16.2087 15.288 15.1641 13.9993 15.1641C12.7107 15.1641 11.666 16.2087 11.666 17.4974C11.666 18.7861 12.7107 19.8307 13.9993 19.8307Z" stroke="#161616" stroke-width="1.2" stroke-linecap="round" stroke-linejoin="round"/>
</svg>
