<svg width="30" height="20" viewBox="0 0 30 20" fill="none" xmlns="http://www.w3.org/2000/svg">
<path d="M12.2932 14.2208V5.77923L19.7381 10.0002L12.2932 14.2208ZM28.8535 3.12307C28.526 1.89371 27.5607 0.925646 26.3352 0.597097C24.1139 0 15.2064 0 15.2064 0C15.2064 0 6.29893 0 4.07753 0.597097C2.85199 0.925646 1.88673 1.89371 1.55918 3.12307C0.963959 5.35118 0.963959 10 0.963959 10C0.963959 10 0.963959 14.6488 1.55918 16.877C1.88673 18.1063 2.85199 19.0743 4.07753 19.403C6.29893 20 15.2064 20 15.2064 20C15.2064 20 24.1139 20 26.3352 19.403C27.5607 19.0743 28.526 18.1063 28.8535 16.877C29.4488 14.6488 29.4488 10 29.4488 10C29.4488 10 29.4488 5.35118 28.8535 3.12307Z" fill="#C0BFBF"/>
</svg>
