<svg width="46" height="28" viewBox="0 0 46 28" fill="none" xmlns="http://www.w3.org/2000/svg">
<rect x="0.3" y="0.3" width="45.4" height="27.4" fill="white" stroke="#A6A4A4" stroke-width="0.6"/>
<path d="M18.5706 17.422V15.058H16.2066V14.302H18.5706V11.938H19.3266V14.302H21.6846V15.058H19.3266V17.422H18.5706ZM26.0426 19.174C25.6146 19.174 25.2206 19.098 24.8606 18.946C24.5006 18.794 24.1906 18.578 23.9306 18.298C23.6706 18.014 23.4806 17.676 23.3606 17.284L24.2006 17.032C24.3446 17.46 24.5806 17.784 24.9086 18.004C25.2406 18.224 25.6146 18.33 26.0306 18.322C26.4146 18.314 26.7446 18.228 27.0206 18.064C27.3006 17.9 27.5146 17.672 27.6626 17.38C27.8106 17.088 27.8846 16.75 27.8846 16.366C27.8846 15.778 27.7126 15.306 27.3686 14.95C27.0286 14.59 26.5786 14.41 26.0186 14.41C25.8626 14.41 25.6986 14.432 25.5266 14.476C25.3546 14.516 25.1946 14.574 25.0466 14.65L24.6026 13.948L27.9626 10.846L28.1066 11.206H23.7026V10.36H28.6946V11.218L25.7666 14.014L25.7546 13.666C26.3546 13.59 26.8826 13.658 27.3386 13.87C27.7946 14.082 28.1506 14.406 28.4066 14.842C28.6666 15.274 28.7966 15.782 28.7966 16.366C28.7966 16.918 28.6766 17.406 28.4366 17.83C28.2006 18.25 27.8746 18.58 27.4586 18.82C27.0426 19.056 26.5706 19.174 26.0426 19.174Z" fill="#525252"/>
</svg>
