<svg width="46" height="28" viewBox="0 0 46 28" fill="none" xmlns="http://www.w3.org/2000/svg">
<rect x="0.3" y="0.3" width="45.4" height="27.4" fill="white" stroke="#A6A4A4" stroke-width="0.6"/>
<g clip-path="url(#clip0_274_2906)">
<path d="M9.35431 12.1094H8V16.8326H9.33567C10.0494 16.8326 10.5621 16.6667 11.0202 16.2816C11.5516 15.8403 11.8805 15.161 11.8805 14.4616C11.8805 13.0829 10.8378 12.1094 9.35431 12.1094ZM10.417 15.6571C10.124 15.9139 9.75781 16.0249 9.15456 16.0249H8.91619V12.8997H9.15456C9.7405 12.8997 10.1067 13.0093 10.417 13.2862C10.7459 13.5804 10.9297 14.0217 10.9297 14.4629C10.9284 14.9216 10.7459 15.3803 10.417 15.6571Z" fill="black"/>
<path d="M13.2161 12.1094H12.3013V16.8326H13.2161V12.1094Z" fill="black"/>
<path d="M15.468 13.9092C14.9194 13.7073 14.7542 13.5789 14.7542 13.3208C14.7542 13.0266 15.0472 12.8059 15.4321 12.8059C15.7064 12.8059 15.9261 12.9156 16.1831 13.1924L16.6585 12.5492C16.2564 12.2002 15.7983 12.0156 15.2669 12.0156C14.4253 12.0156 13.8021 12.604 13.8021 13.3756C13.8021 14.0376 14.0951 14.3679 14.9553 14.6808C15.3215 14.8092 15.504 14.9014 15.5959 14.9563C15.7783 15.0659 15.8702 15.2504 15.8702 15.4524C15.8702 15.8388 15.5586 16.1143 15.1564 16.1143C14.717 16.1143 14.3694 15.8937 14.1497 15.4898L13.5637 16.0408C13.9845 16.6653 14.4972 16.9407 15.1924 16.9407C16.1445 16.9407 16.821 16.2975 16.821 15.3788C16.8223 14.6447 16.5121 14.2956 15.468 13.9092Z" fill="black"/>
<path d="M17.1154 14.4806C17.1154 15.878 18.1953 16.9438 19.6043 16.9438C20.0064 16.9438 20.3367 16.8703 20.7575 16.6684V15.5838C20.3913 15.9516 20.0624 16.0987 19.6415 16.0987C18.708 16.0987 18.0675 15.418 18.0675 14.4632C18.0675 13.5633 18.7453 12.8451 19.6056 12.8451C20.045 12.8451 20.374 12.9922 20.7588 13.3787V12.2942C20.3567 12.0923 20.0264 12 19.6242 12C18.2326 11.9987 17.1154 13.1019 17.1154 14.4806Z" fill="black"/>
<path d="M28.1896 15.2894L26.9445 12.1094H25.9377L27.9326 16.9623H28.428L30.4588 12.1094H29.4707L28.1896 15.2894Z" fill="black"/>
<path d="M30.8795 16.8326H33.4789V16.0422H31.7957V14.7558H33.4243V13.9468H31.7957V12.8997H33.4789V12.1094H30.8795V16.8326Z" fill="black"/>
<path d="M37.1211 13.5068C37.1211 12.6242 36.5165 12.1094 35.4551 12.1094H34.0835V16.8326H34.9984V14.9417H35.1262L36.3886 16.8352H37.5232L36.0411 14.8494C36.7375 14.7023 37.1211 14.2249 37.1211 13.5068ZM35.2727 14.2797H34.9984V12.8462H35.2727C35.84 12.8462 36.1516 13.0856 36.1516 13.5443C36.1702 14.0217 35.8586 14.2797 35.2727 14.2797Z" fill="black"/>
<path d="M23.6497 16.9987C25.0243 16.9987 26.1386 15.8797 26.1386 14.4993C26.1386 13.119 25.0243 12 23.6497 12C22.2751 12 21.1608 13.119 21.1608 14.4993C21.1608 15.8797 22.2751 16.9987 23.6497 16.9987Z" fill="url(#paint0_linear_274_2906)"/>
<path opacity="0.65" d="M23.6497 17C25.024 17 26.1386 15.8807 26.1386 14.5007C26.1386 13.1206 25.0253 12 23.6497 12C22.274 12 21.1608 13.1193 21.1608 14.4993C21.1608 15.8794 22.2754 17 23.6497 17Z" fill="url(#paint1_radial_274_2906)"/>
<path d="M37.7621 12.3159C37.7621 12.2236 37.7075 12.1875 37.5969 12.1875H37.4504V12.6288H37.5596V12.4443L37.6875 12.6101H37.8153L37.6688 12.4269C37.7261 12.4255 37.7621 12.3707 37.7621 12.3159ZM37.5796 12.3707L37.561 12.261H37.5796C37.6342 12.261 37.6529 12.2798 37.6529 12.3159C37.6529 12.352 37.6156 12.3707 37.5796 12.3707Z" fill="black"/>
<path d="M37.6156 12C37.3958 12 37.2307 12.1658 37.2307 12.3865C37.2307 12.6071 37.3958 12.7729 37.6156 12.7729C37.8166 12.7729 38.0004 12.6071 38.0004 12.3865C37.9818 12.1832 37.8166 12 37.6156 12ZM37.6156 12.698C37.4504 12.698 37.304 12.5509 37.304 12.3851C37.304 12.2019 37.4318 12.0722 37.6156 12.0722C37.7807 12.0722 37.9085 12.2193 37.9085 12.3851C37.9085 12.5697 37.7807 12.698 37.6156 12.698Z" fill="black"/>
</g>
<defs>
<linearGradient id="paint0_linear_274_2906" x1="24.9241" y1="16.5031" x2="23.1904" y2="13.8" gradientUnits="userSpaceOnUse">
<stop stop-color="#F9A020"/>
<stop offset="0.2041" stop-color="#F99D20"/>
<stop offset="0.4348" stop-color="#F79320"/>
<stop offset="0.6196" stop-color="#F68820"/>
<stop offset="0.7969" stop-color="#F57E20"/>
<stop offset="1" stop-color="#F47521"/>
</linearGradient>
<radialGradient id="paint1_radial_274_2906" cx="0" cy="0" r="1" gradientUnits="userSpaceOnUse" gradientTransform="translate(24.6414 16.3131) rotate(-117.709) scale(4.39746 3.40273)">
<stop stop-color="#FF932C"/>
<stop offset="0.5677" stop-color="#E86D20"/>
<stop offset="0.8604" stop-color="#E85718" stop-opacity="0.8653"/>
<stop offset="1" stop-color="#640000"/>
</radialGradient>
<clipPath id="clip0_274_2906">
<rect width="30" height="5" fill="white" transform="translate(8 12)"/>
</clipPath>
</defs>
</svg>
