<svg width="46" height="28" viewBox="0 0 46 28" fill="none" xmlns="http://www.w3.org/2000/svg">
<rect x="0.3" y="0.3" width="45.4" height="27.4" fill="white" stroke="#A6A4A4" stroke-width="0.6"/>
<path d="M26.4084 8.5H20.276V19.5056H26.4084V8.5Z" fill="#FF5F00"/>
<path d="M20.6648 14.0016C20.6648 11.8627 21.6577 9.82106 23.3319 8.49884C20.2949 6.10717 15.8952 6.63217 13.5006 9.68495C11.1061 12.7183 11.6317 17.1127 14.6882 19.5044C17.2385 21.5072 20.8011 21.5072 23.3514 19.5044C21.6577 18.1822 20.6648 16.1405 20.6648 14.0016Z" fill="#EB001B"/>
<path d="M34.6822 14.0016C34.6822 17.8711 31.5479 21.0016 27.6738 21.0016C26.0969 21.0016 24.5784 20.4766 23.3519 19.5044C26.3889 17.1127 26.9145 12.7183 24.52 9.66551C24.1696 9.23773 23.7802 8.8294 23.3519 8.49884C26.3889 6.10717 30.8081 6.63217 33.1832 9.68495C34.1566 10.91 34.6822 12.4266 34.6822 14.0016Z" fill="#F79E1B"/>
<path d="M34.0203 18.3347V18.1014H34.1176V18.0625H33.884V18.1014H33.9814V18.3347H34.0203ZM34.4681 18.3347V18.0625H34.3902L34.3123 18.2569L34.2345 18.0625H34.1566V18.3347H34.215V18.1208L34.2929 18.2958H34.3513L34.4291 18.1208V18.3347H34.4681Z" fill="#F79E1B"/>
</svg>
